<?xml version="1.0" encoding="UTF-8"?>

<!--
// Copyright (c) 2014 The Polymer Authors. All rights reserved.
//
// Redistribution and use in source and binary forms, with or without
// modification, are permitted provided that the following conditions are
// met:
//
//    * Redistributions of source code must retain the above copyright
// notice, this list of conditions and the following disclaimer.
//    * Redistributions in binary form must reproduce the above
// copyright notice, this list of conditions and the following disclaimer
// in the documentation and/or other materials provided with the
// distribution.
//    * Neither the name of Google Inc. nor the names of its
// contributors may be used to endorse or promote products derived from
// this software without specific prior written permission.
//
// THIS SOFTWARE IS PROVIDED BY THE COPYRIGHT HOLDERS AND CONTRIBUTORS
// "AS IS" AND ANY EXPRESS OR IMPLIED WARRANTIES, INCLUDING, BUT NOT
// LIMITED TO, THE IMPLIED WARRANTIES OF MERCHANTABILITY AND FITNESS FOR
// A PARTICULAR PURPOSE ARE DISCLAIMED. IN NO EVENT SHALL THE COPYRIGHT
// OWNER OR CONTRIBUTORS BE LIABLE FOR ANY DIRECT, INDIRECT, INCIDENTAL,
// SPECIAL, EXEMPLARY, OR CONSEQUENTIAL DAMAGES (INCLUDING, BUT NOT
// LIMITED TO, PROCUREMENT OF SUBSTITUTE GOODS OR SERVICES; LOSS OF USE,
// DATA, OR PROFITS; OR BUSINESS INTERRUPTION) HOWEVER CAUSED AND ON ANY
// THEORY OF LIABILITY, WHETHER IN CONTRACT, STRICT LIABILITY, OR TORT
// (INCLUDING NEGLIGENCE OR OTHERWISE) ARISING IN ANY WAY OUT OF THE USE
// OF THIS SOFTWARE, EVEN IF ADVISED OF THE POSSIBILITY OF SUCH DAMAGE.
-->

<svg
    xmlns="http://www.w3.org/2000/svg"
    version="1.1"
    width="24px"
    height="24px">

    <path
        d="M12,3c-5,0-9,4-9,9s4,9,9,9c0.8,0,1.5-0.7,1.5-1.5c0-0.4-0.1-0.7-0.4-1c-0.2-0.3-0.4-0.6-0.4-1c0-0.8,0.7-1.5,1.5-1.5H16c2.8,0,5-2.2,5-5C21,6.6,17,3,12,3z M6.5,12C5.7,12,5,11.3,5,10.5S5.7,9,6.5,9C7.3,9,8,9.7,8,10.5S7.3,12,6.5,12z M9.5,8C8.7,8,8,7.3,8,6.5S8.7,5,9.5,5C10.3,5,11,5.7,11,6.5S10.3,8,9.5,8z M14.5,8C13.7,8,13,7.3,13,6.5S13.7,5,14.5,5C15.3,5,16,5.7,16,6.5S15.3,8,14.5,8z M17.5,12c-0.8,0-1.5-0.7-1.5-1.5S16.7,9,17.5,9c0.8,0,1.5,0.7,1.5,1.5S18.3,12,17.5,12z"
        fill="#FFFFFF"/>

</svg>
